<svg xmlns="http://www.w3.org/2000/svg" viewBox="0 0 365 166"><defs><style>.cls-1{fill:#867e2c;}.cls-2{fill:none;stroke:#3f3838;stroke-miterlimit:10;}.cls-3{fill:#3f3838;}.cls-4{fill:#4d4545;}</style></defs><g id="Layer_2" data-name="Layer 2"><g id="Layer_1-2" data-name="Layer 1"><rect class="cls-1" width="365" height="166"/><polyline class="cls-2" points="95.47 30.09 98.28 41 89.37 41 91.73 30.09"/><polygon class="cls-3" points="93.75 16.61 86 20.05 86 22.58 86 36.12 101.5 36.12 101.5 22.58 101.5 20.05 93.75 16.61"/><rect class="cls-3" x="80" y="39.09" width="28" height="43.91"/><rect class="cls-3" x="189" y="59" width="6.69" height="40.57"/><rect class="cls-3" x="214" y="59" width="39.44" height="40.57"/><polygon class="cls-4" points="334 20.2 279 20.2 279 75.6 228.01 75.6 228.01 99.33 189.1 99.33 189.1 37.61 169 12 149 37.61 149 131 131 131 131 54 93.9 54 93.9 83 57.08 83 57.08 62 32 62 32 153.15 334 153.15 334 20.2"/></g></g></svg>