<svg xmlns="http://www.w3.org/2000/svg" viewBox="0 0 117.64 108.89"><defs><style>.cls-1{fill:#867e2c;}</style></defs><g id="Layer_2" data-name="Layer 2"><g id="Layer_1-2" data-name="Layer 1"><path class="cls-1" d="M81.57,60.06c-1.81-2.28-3-2.54-5-4.38-1.45-1.36-2.11-2.53-5-5.57A41.28,41.28,0,0,0,58.82,41a89.62,89.62,0,0,0-10.74,7.45c-.61.48-2.16,2.63-2.94,3.45C42.4,54.74,38,58,33.68,62.81,25.1,72.34,27.78,72.4,25.83,78c-1.42,4.08-2.9,8.43-2.9,13a17.89,17.89,0,0,0,1.31,6.73,18.13,18.13,0,0,0,3.93,5.92c1.49,1.48,3.23,1.87,5.16,2.76,2.28,1.06,4.81,2.47,7.49,2.47,3.21,0,6.86,0,9.21-2.08,1.8-1.57,4.16-1.81,5.65-3.6a13.5,13.5,0,0,0,3-7.76,11.73,11.73,0,0,0,2.16,7.29c1.38,1.83,3,1.56,6.56,4.09a7.86,7.86,0,0,0,3.28,1.33,24.8,24.8,0,0,0,5.89.73c2.47,0,4.4-.91,6.54-1.82s4.48-1.8,6.1-3.41A16.93,16.93,0,0,0,92.65,98a18.26,18.26,0,0,0,1.82-7,19.19,19.19,0,0,0-1.6-6.38C92,82,91.75,82.26,90.06,77,88,70.49,86.47,66.22,81.57,60.06ZM58.67,95.19a15.43,15.43,0,0,1-5-3.26c-.59-.54-2.43-3.15-3.09-3.77A48.37,48.37,0,0,1,46,83.52C44.36,81.41,44.3,80.6,43.4,78a18.39,18.39,0,0,1-1.22-6,8.27,8.27,0,0,1,8.27-8.27c4.57,0,8.18,5.27,8.18,9.84C59,69.06,63,63.76,67,63.76A8.28,8.28,0,0,1,75.28,72c0,2.6.12,3.55-.83,5.79-.74,1.76-3.13,4.4-4.22,5.91-1.45,2-2.4,4.3-4,5.81A43.89,43.89,0,0,1,58.67,95.19Z"/><path class="cls-1" d="M96.51,42.14c-4,8.91-2.64,18.19,3,20.74S113,60.27,117,51.36c1.49-3.32-.29-6.7-.23-9.77.09-5.13-1.52-6.94-2.79-11-.7-2.23-4.55-2.94-7-1.94-1.64.68-2.68,3.29-4.21,5.12C100.61,36.49,98,38.84,96.51,42.14Z"/><path class="cls-1" d="M65.05,19.56c-.48,5.19-2,12.75-.38,16.57,2,4.63,7.66,5,11.66,5.43,7.29.68,14.07-8.07,15.14-19.53.34-3.62-2.42-7.3-3.18-10.36C86.64,5,85.19.5,80.2,0c-3.65-.34-6.33,1.89-9.07,5.42S65.59,13.83,65.05,19.56Z"/><path class="cls-1" d="M21.12,42.14c4,8.91,2.65,18.19-3,20.74S4.6,60.27.6,51.36c-1.5-3.32.29-6.7.23-9.77-.09-5.13,1.52-6.94,2.79-11,.7-2.23,4.55-2.94,7-1.94,1.64.68,2.68,3.29,4.2,5.12C17,36.49,19.64,38.84,21.12,42.14Z"/><path class="cls-1" d="M52.59,19.56c.48,5.19,2,12.75.38,16.57-2,4.63-7.66,5-11.66,5.43C34,42.24,27.23,33.49,26.16,22c-.33-3.62,2.43-7.3,3.19-10.36C31,5,32.45.5,37.44,0c3.65-.34,6.32,1.89,9.06,5.42S52.05,13.83,52.59,19.56Z"/></g></g></svg>