<svg xmlns="http://www.w3.org/2000/svg" viewBox="0 0 1920 920"><defs><style>.cls-1{fill:#867e2c;}.cls-2{fill:none;}</style></defs><g id="Layer_2" data-name="Layer 2"><g id="Layer_1-2" data-name="Layer 1"><path class="cls-1" d="M1671.63,433.11c-.91-1.67-1.67-2-2.73-3.38-.78-1-1.07-1.87-2.61-4.15a26.9,26.9,0,0,0-7.14-7.3,58.54,58.54,0,0,0-7.75,3.57c-.44.25-1.68,1.45-2.28,1.89-2.08,1.53-5.28,3.14-8.6,5.74-6.59,5.16-4.87,5.5-6.76,8.88a26.33,26.33,0,0,0-3.33,8,11.66,11.66,0,0,0,2,8.72,10.16,10.16,0,0,0,3,2.36c1.34.94,2.82,2.14,4.54,2.44,2.06.36,4.41.75,6.15-.3,1.34-.81,2.88-.7,4-1.68a8.82,8.82,0,0,0,2.82-4.65,7.65,7.65,0,0,0,.57,4.93c.68,1.33,1.77,1.34,3.75,3.37a5.19,5.19,0,0,0,2,1.22,16,16,0,0,0,3.71,1.14,10.56,10.56,0,0,0,4.41-.43,12.36,12.36,0,0,0,4.31-1.51,11.21,11.21,0,0,0,2.84-3.27,12,12,0,0,0,2-4.28,12.43,12.43,0,0,0-.31-4.28c-.29-1.77-.45-1.65-.94-5.24C1674.58,440.54,1674.08,437.62,1671.63,433.11Z"/><path class="cls-1" d="M1683.25,423.27c-3.57,5.28-3.75,11.4-.39,13.68s9-.16,12.55-5.43c1.34-2,.57-4.35.95-6.31.64-3.29-.19-4.64-.55-7.37-.2-1.51-2.6-2.4-4.27-2-1.13.25-2.09,1.82-3.28,2.82C1686.52,420.1,1684.58,421.31,1683.25,423.27Z"/><path class="cls-1" d="M1665.57,405.21c-.9,3.28-2.75,8-2.11,10.61.77,3.2,4.35,4.11,6.88,4.8,4.61,1.26,10-3.6,11.94-10.85.63-2.29-.73-5-.88-7-.31-4.45-.73-7.53-3.89-8.39-2.31-.63-4.28.5-6.44,2.46A18,18,0,0,0,1665.57,405.21Z"/><path class="cls-1" d="M1634.78,414.78c1.57,6.17-.35,12-4.28,13s-8.39-3.2-10-9.38c-.59-2.31.94-4.28,1.25-6.25.52-3.32,1.76-4.3,3-6.74.7-1.35,3.26-1.38,4.7-.46,1,.62,1.35,2.42,2.13,3.76C1632.78,410.68,1634.19,412.48,1634.78,414.78Z"/><path class="cls-1" d="M1657.55,403.8c-.27,3.39-.12,8.43-1.62,10.7-1.82,2.75-5.49,2.38-8.11,2.17-4.76-.38-8.14-6.77-7.54-14.26.2-2.37,2.38-4.42,3.22-6.3,1.81-4.08,3.25-6.84,6.51-6.57,2.39.19,3.86,1.92,5.22,4.51A17.9,17.9,0,0,1,1657.55,403.8Z"/><path class="cls-1" d="M1735.66,567.12c-.91-1.67-1.67-2-2.73-3.39-.78-1-1.07-1.86-2.61-4.14a26.9,26.9,0,0,0-7.14-7.3,57,57,0,0,0-7.75,3.57c-.44.25-1.68,1.45-2.28,1.89-2.08,1.53-5.28,3.14-8.6,5.74-6.59,5.16-4.87,5.5-6.76,8.88a26.33,26.33,0,0,0-3.33,8,11.66,11.66,0,0,0,2,8.72,10.16,10.16,0,0,0,3,2.36c1.34.94,2.82,2.13,4.54,2.44,2.06.36,4.41.75,6.15-.3,1.34-.81,2.88-.7,4-1.68a8.82,8.82,0,0,0,2.82-4.65,7.65,7.65,0,0,0,.57,4.93c.68,1.33,1.77,1.34,3.75,3.37a5.19,5.19,0,0,0,2,1.22A16.55,16.55,0,0,0,1727,598a10.56,10.56,0,0,0,4.41-.44,12.16,12.16,0,0,0,4.31-1.51,11,11,0,0,0,2.84-3.27,11.88,11.88,0,0,0,2-4.27,12.43,12.43,0,0,0-.31-4.28c-.29-1.77-.45-1.65-.94-5.24C1738.61,574.55,1738.11,571.63,1735.66,567.12Z"/><path class="cls-1" d="M1747.28,557.28c-3.57,5.28-3.75,11.4-.39,13.68s9-.16,12.55-5.44c1.34-2,.57-4.34,1-6.3.64-3.3-.19-4.64-.55-7.37-.2-1.51-2.6-2.4-4.27-2-1.13.25-2.09,1.81-3.28,2.82C1750.55,554.11,1748.61,555.32,1747.28,557.28Z"/><path class="cls-1" d="M1729.6,539.22c-.9,3.28-2.75,8-2.11,10.61.77,3.2,4.35,4.11,6.88,4.8,4.61,1.26,10-3.6,11.94-10.85.63-2.29-.73-5-.88-7-.31-4.45-.73-7.53-3.89-8.39-2.31-.63-4.28.5-6.44,2.46A18,18,0,0,0,1729.6,539.22Z"/><path class="cls-1" d="M1698.81,548.78c1.57,6.18-.35,12-4.28,13s-8.39-3.2-10-9.38c-.59-2.31.94-4.28,1.25-6.26.52-3.31,1.76-4.29,3-6.73.7-1.36,3.26-1.38,4.7-.46,1,.62,1.35,2.42,2.13,3.76C1696.81,544.69,1698.22,546.49,1698.81,548.78Z"/><path class="cls-1" d="M1721.58,537.81c-.27,3.39-.12,8.43-1.62,10.7-1.81,2.75-5.49,2.38-8.11,2.17-4.76-.38-8.14-6.77-7.53-14.26.19-2.37,2.38-4.42,3.21-6.31,1.81-4.07,3.25-6.83,6.51-6.56,2.39.19,3.86,1.92,5.22,4.5A17.94,17.94,0,0,1,1721.58,537.81Z"/><path class="cls-1" d="M1594.64,616.5c-.6-1.81-1.29-2.24-2.08-3.82-.57-1.16-.71-2-1.81-4.55a27,27,0,0,0-5.71-8.47,56.77,56.77,0,0,0-8.26,2.12c-.48.15-1.92,1.12-2.59,1.44-2.32,1.13-5.76,2.13-9.49,4.09-7.42,3.88-5.79,4.53-8.26,7.52a26.1,26.1,0,0,0-4.72,7.3,11.62,11.62,0,0,0,.33,8.93,10.23,10.23,0,0,0,2.53,2.86c1.16,1.17,2.39,2.61,4,3.22,2,.73,4.21,1.54,6.11.82,1.46-.56,3-.17,4.28-.93a8.79,8.79,0,0,0,3.61-4.06,7.64,7.64,0,0,0-.33,4.95c.43,1.43,1.5,1.64,3.08,4a5.08,5.08,0,0,0,1.71,1.56,16,16,0,0,0,3.44,1.79,10.55,10.55,0,0,0,4.42.37,12.16,12.16,0,0,0,4.51-.71,11.08,11.08,0,0,0,3.38-2.7,11.82,11.82,0,0,0,2.69-3.85,12.3,12.3,0,0,0,.47-4.27c0-1.79-.15-1.7,0-5.32C1596.2,624.34,1596.24,621.38,1594.64,616.5Z"/><path class="cls-1" d="M1607.85,608.93c-4.47,4.54-5.75,10.53-2.86,13.37s8.86,1.47,13.33-3.07c1.67-1.7,1.35-4.17,2.07-6,1.23-3.12.65-4.59.79-7.35.08-1.52-2.12-2.83-3.83-2.76-1.16,0-2.38,1.4-3.73,2.17C1611.64,606.39,1609.51,607.24,1607.85,608.93Z"/><path class="cls-1" d="M1593.72,588c-1.47,3.07-4.14,7.34-4,10.06.18,3.29,3.54,4.83,5.91,6,4.31,2.08,10.44-1.73,13.7-8.51,1-2.14.18-5,.41-7.06.49-4.44.63-7.54-2.32-9-2.15-1-4.29-.28-6.77,1.26A18,18,0,0,0,1593.72,588Z"/><path class="cls-1" d="M1561.71,591.81c.42,6.36-2.51,11.74-6.56,12s-7.67-4.67-8.1-11c-.16-2.37,1.7-4,2.36-5.92,1.11-3.17,2.51-3.91,4.2-6.08.93-1.21,3.45-.77,4.7.4.85.78.89,2.62,1.41,4.08C1560.48,587.42,1561.55,589.45,1561.71,591.81Z"/><path class="cls-1" d="M1586.09,585.13c-.88,3.29-1.64,8.27-3.53,10.23-2.28,2.38-5.83,1.35-8.36.67-4.62-1.24-6.79-8.13-4.84-15.39.61-2.29,3.14-3.92,4.3-5.62,2.51-3.68,4.43-6.13,7.59-5.28,2.31.62,3.45,2.59,4.32,5.38A18,18,0,0,1,1586.09,585.13Z"/><path class="cls-1" d="M1607.21,762.83c-.59-1.81-1.28-2.25-2.07-3.82-.58-1.17-.71-2-1.81-4.55a27,27,0,0,0-5.71-8.48,58.42,58.42,0,0,0-8.26,2.12c-.49.16-1.92,1.12-2.59,1.45-2.32,1.12-5.76,2.13-9.49,4.08-7.42,3.89-5.79,4.54-8.26,7.52a25.93,25.93,0,0,0-4.72,7.31,11.52,11.52,0,0,0-.73,4.41,11.83,11.83,0,0,0,1.06,4.52,10.23,10.23,0,0,0,2.53,2.86c1.15,1.16,2.39,2.61,4,3.21,2,.73,4.21,1.54,6.11.82,1.46-.55,3-.17,4.28-.92a8.89,8.89,0,0,0,3.61-4.06,7.63,7.63,0,0,0-.33,5c.42,1.43,1.5,1.64,3.08,4a5.18,5.18,0,0,0,1.71,1.56,15.87,15.87,0,0,0,3.43,1.78,10.75,10.75,0,0,0,4.42.38,12.3,12.3,0,0,0,4.51-.71,11,11,0,0,0,3.39-2.7,11.93,11.93,0,0,0,2.69-3.85,12.33,12.33,0,0,0,.47-4.27c0-1.79-.15-1.7,0-5.32C1608.77,770.66,1608.82,767.71,1607.21,762.83Z"/><path class="cls-1" d="M1620.43,755.25c-4.47,4.55-5.75,10.54-2.86,13.38s8.86,1.47,13.33-3.07c1.67-1.7,1.34-4.18,2.07-6,1.22-3.12.65-4.59.79-7.34.07-1.52-2.12-2.83-3.83-2.77-1.16.05-2.39,1.41-3.74,2.18C1624.22,752.72,1622.09,753.57,1620.43,755.25Z"/><path class="cls-1" d="M1606.3,734.29c-1.48,3.06-4.15,7.33-4,10.05.18,3.3,3.54,4.83,5.9,6,4.32,2.07,10.45-1.74,13.71-8.51,1-2.14.18-5,.4-7.07.5-4.43.64-7.54-2.31-9-2.15-1-4.3-.28-6.78,1.26A18,18,0,0,0,1606.3,734.29Z"/><path class="cls-1" d="M1574.28,738.14c.43,6.36-2.5,11.73-6.55,12s-7.68-4.66-8.1-11c-.16-2.38,1.7-4,2.36-5.93,1.11-3.16,2.5-3.9,4.19-6.08.94-1.2,3.46-.76,4.71.4.85.79.89,2.62,1.41,4.09C1573.06,733.74,1574.13,735.77,1574.28,738.14Z"/><path class="cls-1" d="M1598.67,731.46c-.88,3.28-1.65,8.26-3.53,10.23-2.28,2.38-5.84,1.35-8.37.67-4.62-1.24-6.78-8.13-4.83-15.39.61-2.3,3.14-3.92,4.3-5.62,2.51-3.69,4.43-6.13,7.59-5.28,2.31.62,3.44,2.59,4.32,5.37A18.14,18.14,0,0,1,1598.67,731.46Z"/><path class="cls-1" d="M1752,264.53c-1-1.6-1.8-1.86-3-3.2-.84-1-1.19-1.79-2.87-4a26.75,26.75,0,0,0-7.6-6.82,57.31,57.31,0,0,0-7.5,4.07c-.43.27-1.59,1.56-2.15,2-2,1.67-5.07,3.48-8.21,6.29-6.24,5.58-4.5,5.81-6.17,9.31a25.84,25.84,0,0,0-2.79,8.23,11.55,11.55,0,0,0,2.51,8.58,10,10,0,0,0,3.15,2.16c1.4.84,3,1.94,4.68,2.13,2.09.23,4.46.47,6.13-.7,1.28-.89,2.82-.88,3.92-1.94a8.83,8.83,0,0,0,2.51-4.82,7.61,7.61,0,0,0,.89,4.88c.76,1.29,1.85,1.22,4,3.12a5.06,5.06,0,0,0,2,1.09,16,16,0,0,0,3.77.89,10.4,10.4,0,0,0,4.37-.72,12.12,12.12,0,0,0,4.2-1.78,11,11,0,0,0,2.62-3.45,12,12,0,0,0,1.68-4.39,12.77,12.77,0,0,0-.59-4.26c-.41-1.74-.57-1.61-1.29-5.16C1755.46,271.75,1754.77,268.88,1752,264.53Z"/><path class="cls-1" d="M1763,254c-3.23,5.5-3,11.62.49,13.67s9-.74,12.18-6.24c1.2-2.05.28-4.37.54-6.36.42-3.32-.5-4.61-1-7.31-.29-1.49-2.75-2.23-4.39-1.75-1.11.33-2,1.95-3.09,3C1766,250.58,1764.19,251.92,1763,254Z"/><path class="cls-1" d="M1744.16,237.09c-.68,3.33-2.22,8.12-1.42,10.72,1,3.15,4.62,3.82,7.19,4.34,4.68,1,9.7-4.24,11.21-11.6.47-2.33-1.06-4.91-1.34-7-.6-4.42-1.22-7.47-4.43-8.12-2.35-.48-4.24.78-6.27,2.88A18,18,0,0,0,1744.16,237.09Z"/><path class="cls-1" d="M1714.06,248.64c2,6.06.44,12-3.42,13.25s-8.58-2.65-10.55-8.71c-.74-2.27.66-4.33.84-6.33.3-3.33,1.47-4.39,2.58-6.92.61-1.39,3.16-1.58,4.66-.76,1,.56,1.51,2.32,2.37,3.62C1711.8,244.68,1713.33,246.39,1714.06,248.64Z"/><path class="cls-1" d="M1736.07,236.21c0,3.4.43,8.41-.92,10.78-1.63,2.86-5.33,2.73-8,2.69-4.78-.07-8.57-6.22-8.45-13.74,0-2.37,2.09-4.57,2.8-6.5,1.53-4.18,2.79-7,6.07-7,2.39,0,4,1.67,5.5,4.16A18,18,0,0,1,1736.07,236.21Z"/><path class="cls-1" d="M1831.47,149.51c-1.31-1.38-2.12-1.48-3.51-2.57-1-.8-1.51-1.53-3.58-3.34a26.81,26.81,0,0,0-8.78-5.23,58.91,58.91,0,0,0-6.57,5.45c-.36.34-1.25,1.83-1.72,2.41-1.62,2-4.3,4.38-6.84,7.74-5,6.68-3.3,6.58-4.25,10.33a25.79,25.79,0,0,0-1.16,8.62,11.63,11.63,0,0,0,4.11,7.93,10.32,10.32,0,0,0,3.51,1.51c1.54.56,3.27,1.34,5,1.19,2.09-.18,4.46-.4,5.88-1.87,1.08-1.12,2.6-1.41,3.47-2.65a8.8,8.8,0,0,0,1.53-5.22,7.7,7.7,0,0,0,1.81,4.62c1,1.11,2.06.84,4.5,2.29a5,5,0,0,0,2.2.68,16,16,0,0,0,3.88.15,10.58,10.58,0,0,0,4.15-1.55,12.31,12.31,0,0,0,3.78-2.56,11.11,11.11,0,0,0,1.9-3.89,11.8,11.8,0,0,0,.8-4.63,12.53,12.53,0,0,0-1.4-4.06c-.74-1.64-.86-1.48-2.26-4.82C1836.22,155.93,1835,153.24,1831.47,149.51Z"/><path class="cls-1" d="M1840.19,137c-2.11,6-.71,12,3.12,13.32s8.64-2.45,10.74-8.47c.79-2.25-.56-4.35-.7-6.34-.23-3.35-1.37-4.43-2.42-7-.58-1.41-3.13-1.65-4.65-.87-1,.54-1.55,2.29-2.44,3.57C1842.53,133.11,1841,134.79,1840.19,137Z"/><path class="cls-1" d="M1818.46,124.09c0,3.4-.62,8.41.68,10.8,1.56,2.9,5.26,2.86,7.88,2.88,4.79,0,8.71-6,8.76-13.55,0-2.37-2-4.61-2.65-6.56-1.44-4.22-2.64-7.09-5.91-7.12-2.39,0-4,1.59-5.59,4A18,18,0,0,0,1818.46,124.09Z"/><path class="cls-1" d="M1791.15,141.24c3.1,5.57,2.74,11.68-.8,13.65s-8.93-.94-12-6.51c-1.15-2.08-.18-4.38-.39-6.37-.35-3.33.6-4.59,1.2-7.29.33-1.48,2.8-2.16,4.43-1.64,1.1.35,1.92,2,3,3.09C1788.17,137.79,1790,139.17,1791.15,141.24Z"/><path class="cls-1" d="M1810.35,124.79c.61,3.35,2,8.17,1.18,10.76-1,3.12-4.7,3.71-7.28,4.18-4.71.85-9.61-4.46-11-11.86-.42-2.34,1.17-4.88,1.49-6.92.7-4.4,1.4-7.43,4.62-8,2.35-.43,4.22.87,6.2,3A18.07,18.07,0,0,1,1810.35,124.79Z"/><path class="cls-1" d="M1815.67,404.33c-.9-1.68-1.66-2-2.71-3.4-.77-1-1.06-1.87-2.59-4.16a27,27,0,0,0-7.1-7.34,58,58,0,0,0-7.77,3.54c-.44.24-1.69,1.44-2.29,1.87-2.09,1.52-5.3,3.12-8.63,5.69-6.61,5.13-4.9,5.48-6.8,8.85a25.91,25.91,0,0,0-3.37,8,11.68,11.68,0,0,0,1.89,8.73,10.33,10.33,0,0,0,3,2.37c1.34.94,2.8,2.15,4.52,2.46,2.07.37,4.41.78,6.16-.27,1.34-.8,2.88-.68,4-1.65a8.9,8.9,0,0,0,2.84-4.64,7.66,7.66,0,0,0,.54,4.93c.67,1.34,1.77,1.35,3.74,3.39a5.11,5.11,0,0,0,1.95,1.24,16.32,16.32,0,0,0,3.7,1.15,10.58,10.58,0,0,0,4.42-.41,12,12,0,0,0,4.31-1.49,10.92,10.92,0,0,0,2.86-3.25,11.79,11.79,0,0,0,2-4.26,12.49,12.49,0,0,0-.28-4.29c-.29-1.77-.45-1.65-.92-5.24C1818.58,411.77,1818.1,408.86,1815.67,404.33Z"/><path class="cls-1" d="M1827.35,394.55c-3.6,5.26-3.81,11.38-.47,13.68s9-.11,12.58-5.37c1.35-2,.6-4.34,1-6.3.65-3.29-.17-4.64-.52-7.37-.19-1.51-2.58-2.42-4.25-2.05-1.13.24-2.1,1.8-3.3,2.79C1830.64,391.39,1828.69,392.6,1827.35,394.55Z"/><path class="cls-1" d="M1809.76,376.4c-.92,3.27-2.79,7.94-2.17,10.59.75,3.21,4.33,4.14,6.86,4.84,4.61,1.29,10-3.54,12-10.78.63-2.29-.71-5-.85-7-.29-4.45-.69-7.53-3.84-8.41-2.31-.64-4.29.48-6.46,2.43A18,18,0,0,0,1809.76,376.4Z"/><path class="cls-1" d="M1778.92,385.8c1.53,6.19-.41,12-4.35,13s-8.37-3.24-9.91-9.43c-.57-2.31,1-4.27,1.28-6.25.54-3.3,1.79-4.28,3.07-6.72.7-1.35,3.26-1.36,4.7-.43,1,.63,1.34,2.42,2.11,3.77C1776.94,381.69,1778.35,383.51,1778.92,385.8Z"/><path class="cls-1" d="M1801.75,375c-.29,3.39-.17,8.42-1.68,10.69-1.83,2.74-5.5,2.35-8.12,2.13-4.76-.41-8.1-6.82-7.46-14.31.2-2.36,2.4-4.4,3.25-6.28,1.82-4.07,3.28-6.82,6.55-6.54,2.38.21,3.84,1.95,5.19,4.54A18.05,18.05,0,0,1,1801.75,375Z"/><path class="cls-1" d="M1470.38,830.44c-.6-1.8-1.29-2.24-2.08-3.82-.58-1.16-.71-2-1.81-4.55a27,27,0,0,0-5.71-8.47,58.42,58.42,0,0,0-8.26,2.12c-.48.16-1.92,1.12-2.59,1.44-2.32,1.13-5.76,2.13-9.49,4.09-7.42,3.89-5.79,4.53-8.26,7.52a26.1,26.1,0,0,0-4.72,7.3,11.62,11.62,0,0,0,.33,8.93c.57,1.25,1.55,1.88,2.53,2.87,1.15,1.16,2.39,2.6,4,3.21,2,.73,4.21,1.54,6.11.82,1.46-.56,3-.17,4.28-.92a8.92,8.92,0,0,0,3.61-4.07,7.64,7.64,0,0,0-.33,5c.42,1.44,1.5,1.64,3.08,4a5.08,5.08,0,0,0,1.71,1.56,15.74,15.74,0,0,0,3.44,1.79,10.55,10.55,0,0,0,4.42.37,12.36,12.36,0,0,0,4.51-.7,11.11,11.11,0,0,0,3.38-2.71,11.71,11.71,0,0,0,2.69-3.85,12.27,12.27,0,0,0,.47-4.26c0-1.8-.15-1.71,0-5.33C1471.93,838.28,1472,835.33,1470.38,830.44Z"/><path class="cls-1" d="M1483.59,822.87c-4.47,4.54-5.75,10.53-2.86,13.38s8.86,1.47,13.33-3.08c1.67-1.69,1.34-4.17,2.07-6,1.22-3.12.65-4.59.79-7.35.08-1.51-2.12-2.83-3.83-2.76-1.16,0-2.38,1.4-3.74,2.18C1487.38,820.34,1485.25,821.18,1483.59,822.87Z"/><path class="cls-1" d="M1469.46,801.9c-1.48,3.07-4.14,7.34-4,10.06.18,3.29,3.54,4.83,5.91,6,4.31,2.07,10.44-1.74,13.7-8.52,1-2.14.18-5,.41-7.06.49-4.43.63-7.54-2.32-9-2.15-1-4.3-.28-6.78,1.26A18.06,18.06,0,0,0,1469.46,801.9Z"/><path class="cls-1" d="M1437.44,805.75c.43,6.36-2.5,11.74-6.55,12s-7.67-4.67-8.1-11c-.16-2.37,1.7-4,2.36-5.92,1.11-3.16,2.5-3.9,4.19-6.08.94-1.2,3.46-.76,4.71.4.85.79.89,2.62,1.41,4.08C1436.22,801.36,1437.29,803.39,1437.44,805.75Z"/><path class="cls-1" d="M1461.83,799.08c-.88,3.28-1.64,8.26-3.53,10.22-2.28,2.38-5.83,1.36-8.37.68-4.62-1.24-6.78-8.14-4.83-15.4.61-2.29,3.14-3.92,4.3-5.62,2.51-3.68,4.43-6.13,7.59-5.28,2.31.62,3.44,2.59,4.32,5.38A18,18,0,0,1,1461.83,799.08Z"/><rect class="cls-2" width="1920" height="920"/></g></g></svg>